<svg xmlns="http://www.w3.org/2000/svg" version="1.1" xmlns:xlink="http://www.w3.org/1999/xlink" xmlns:svgjs="http://svgjs.dev/svgjs" width="1000" height="1000" viewBox="0 0 1000 1000"><rect width="1000" height="1000" fill="#ffffff"></rect><g transform="matrix(0.7,0,0,0.7,150.31056625104497,270.9356275303644)"><svg viewBox="0 0 377 247" data-background-color="#ffffff" preserveAspectRatio="xMidYMid meet" height="655" width="1000" xmlns="http://www.w3.org/2000/svg" xmlns:xlink="http://www.w3.org/1999/xlink"><g id="tight-bounds" transform="matrix(1,0,0,1,-0.1672621094913609,-0.09999999999999432)"><svg viewBox="0 0 377.3345242189827 247.2" height="247.2" width="377.3345242189827"><g><svg viewBox="0 0 395.52 259.1136981233622" height="247.2" width="377.3345242189827"><g transform="matrix(1,0,0,1,0,189.34841375091744)"><svg viewBox="0 0 395.52 69.76528437244478" height="69.76528437244478" width="395.52"><g id="textblocktransform"><svg viewBox="0 0 395.52 69.76528437244478" height="69.76528437244478" width="395.52" id="textblock"><g><svg viewBox="0 0 395.52 42.33953762084909" height="42.33953762084909" width="395.52"><g transform="matrix(1,0,0,1,0,0)"><svg width="395.52" viewBox="2.299999952316284 -35.5 356.82000732421875 38.20000076293945" height="42.33953762084909" data-palette-color="#77d4fc"><path d="M26.65-4.8L26.65-4.8 31.55 0.25 29.1 2.7 24.35-2.35Q21 0.35 16.28 0.35 11.55 0.35 8.35-2.2L8.35-2.2Q2.3-6.95 2.3-17.75L2.3-17.75Q2.3-25.6 5.83-30.55 9.35-35.5 16.18-35.5 23-35.5 26.55-30.55 30.1-25.6 30.1-17.6 30.1-9.6 26.65-4.8ZM17.45-9.45L19.95-11.9 24.05-7.45Q26.35-11.25 26.35-17.53 26.35-23.8 23.68-28.05 21-32.3 16.2-32.3L16.2-32.3Q13.55-32.3 11.53-31.05 9.5-29.8 8.35-27.7L8.35-27.7Q6.1-23.5 6.1-17.48 6.1-11.45 8.68-7.2 11.25-2.95 16.2-2.95L16.2-2.95Q19.5-2.95 21.85-4.85L21.85-4.85 17.45-9.45ZM58.12-3.03Q55.05 0.3 49.15 0.3 43.25 0.3 40.17-3.03 37.1-6.35 37.1-12.9L37.1-12.9 37.1-35 40.9-35 40.9-12.3Q40.9-7.85 43.02-5.4 45.15-2.95 49.07-2.95 53-2.95 55.2-5.38 57.4-7.8 57.4-12.3L57.4-12.3 57.4-35 61.2-35 61.2-12.9Q61.2-6.35 58.12-3.03ZM89.15-3.25L89.15 0 70.3 0 70.3-35 89.15-35 89.15-31.75 74.05-31.75 74.05-20.65 87.9-20.65 87.9-17.3 74.05-17.3 74.05-3.25 89.15-3.25ZM114.99-33.75L114.99-33.75 114.19-30.4 111.29-31.25Q108.19-32 105.94-32L105.94-32Q100.04-32 100.04-26.75L100.04-26.75Q100.04-24.45 101.84-22.98 103.64-21.5 106.22-20.63 108.79-19.75 111.37-18.73 113.94-17.7 115.74-15.58 117.54-13.45 117.54-10.2L117.54-10.2Q117.54-5.25 114.49-2.48 111.44 0.3 105.84 0.3L105.84 0.3Q103.04 0.3 100.22-0.53 97.39-1.35 95.59-2.45L95.59-2.45 96.84-5.3Q101.39-3.2 105.47-3.2 109.54-3.2 111.67-4.85 113.79-6.5 113.79-9.65L113.79-9.65Q113.79-12.85 110.34-14.65L110.34-14.65Q108.79-15.45 106.92-16.15 105.04-16.85 103.17-17.68 101.29-18.5 99.77-19.55 98.24-20.6 97.27-22.4 96.29-24.2 96.29-26.6L96.29-26.6Q96.29-30.9 98.87-33.2 101.44-35.5 105.79-35.5 110.14-35.5 114.99-33.75ZM134.89 0L131.19 0 131.19-31.65 121.39-31.65 121.39-35 144.59-35 144.59-31.65 134.89-31.65 134.89 0ZM153.89-35L153.89 0 150.14 0 150.14-35 153.89-35ZM174.59 0.25L174.59 0.25Q167.74 0.25 164.24-4.83 160.74-9.9 160.74-17.75 160.74-25.6 164.26-30.55 167.78-35.5 174.61-35.5 181.44-35.5 184.99-30.55 188.53-25.6 188.53-17.75L188.53-17.75Q188.53-7 182.44-2.25L182.44-2.25Q179.19 0.25 174.59 0.25ZM174.69-32.25L174.69-32.25Q169.59-32.25 167.06-28 164.53-23.75 164.53-17.6 164.53-11.45 167.11-7.25 169.69-3.05 174.69-3.05 179.69-3.05 182.24-7.3 184.78-11.55 184.78-18L184.78-18Q184.78-26.1 180.24-30.1L180.24-30.1Q177.88-32.25 174.69-32.25ZM220.23-35L220.23 0.05 216.13 0.05 199.28-28 199.28 0 195.38 0 195.38-35 199.28-35 216.48-5.9 216.48-35 220.23-35ZM236.73-16.45L236.73-12.7 227.18-12.7 227.18-16.45 236.73-16.45ZM253.33 0L243.68 0 243.68-35 253.68-35Q259.03-35 261.68-32.68 264.33-30.35 264.33-26.05L264.33-26.05Q264.33-23.15 262.43-21.25 260.53-19.35 257.28-18.95L257.28-18.95Q261.28-18.35 263.5-16.1 265.73-13.85 265.73-10.5L265.73-10.5Q265.73-5.75 262.45-2.88 259.18 0 253.33 0L253.33 0ZM247.58-17.15L247.58-3.25 254.53-3.25Q257.83-3.25 259.83-5.25 261.83-7.25 261.83-10.25 261.83-13.25 259.7-15.2 257.58-17.15 253.48-17.15L253.48-17.15 247.58-17.15ZM253.93-31.75L253.93-31.75 247.58-31.75 247.58-20.35 253.43-20.35Q256.18-20.35 258.3-21.88 260.43-23.4 260.43-26.1L260.43-26.1Q260.43-31.55 253.93-31.75ZM285.18-35L296.78 0 292.58 0 289.08-11.05 276.53-11.05 273.08 0 269.13 0 280.63-35 285.18-35ZM277.48-14.3L288.23-14.3 282.88-31.2 277.48-14.3ZM326.82-35L326.82 0.05 322.72 0.05 305.87-28 305.87 0 301.97 0 301.97-35 305.87-35 323.07-5.9 323.07-35 326.82-35ZM346.72-21.7L359.12 0 354.42 0 344.17-19.15 339.67-14.4 339.67 0 335.92 0 335.92-34.95 339.62-34.95 339.62-19.2 354.22-35 358.82-35 346.72-21.7Z" opacity="1" transform="matrix(1,0,0,1,0,0)" fill="#000000" class="wordmark-text-0" data-fill-palette-color="primary" id="text-0"></path></svg></g></svg></g><g transform="matrix(1,0,0,1,75.54432,52.33488630422866)"><svg viewBox="0 0 244.43135999999998 17.430398068216117" height="17.430398068216117" width="244.43135999999998"><g transform="matrix(1,0,0,1,0,0)"><svg width="244.43135999999998" viewBox="-0.25 -36.099998474121094 662.52001953125 47.25" height="17.430398068216117" data-palette-color="#4b91f1"><path d="M-0.25 0L12.75-33.85 17.45-33.85 30.5 0 24.15 0 21.05-8.85 8.85-8.85 5.65 0-0.25 0ZM10.45-13.25L19.5-13.25Q17.9-17.75 16.75-21.43 15.6-25.1 15-27.2L15-27.2Q14.3-24.95 13.15-21.3 12-17.65 10.45-13.25L10.45-13.25ZM40.85-25.5L40.85-25.5Q42.3-25.5 43.7-25.2 45.1-24.9 46.2-24.5L46.2-24.5Q47.5-24.05 48.6-23.55L48.6-23.55 46.9-19.65Q45.9-20.1 44.9-20.45L44.9-20.45Q44.05-20.75 43.02-21.03 42-21.3 41-21.3L41-21.3Q39.85-21.3 39.02-20.75 38.2-20.2 38.2-19.1L38.2-19.1Q38.2-16.25 42.35-14.65L42.35-14.65Q43.9-14.05 45.15-13.38 46.4-12.7 47.27-11.8 48.15-10.9 48.6-9.73 49.05-8.55 49.05-6.95L49.05-6.95Q49.05-5.55 48.47-4.2 47.9-2.85 46.77-1.8 45.65-0.75 44.02-0.13 42.4 0.5 40.35 0.5L40.35 0.5Q38.7 0.5 37.1 0.13 35.5-0.25 34.22-0.7 32.95-1.15 32.2-1.55L32.2-1.55 31.45-1.9 33.3-6.1 33.95-5.75Q34.6-5.35 35.6-4.9 36.6-4.45 37.75-4.08 38.9-3.7 39.85-3.7L39.85-3.7Q41.6-3.7 42.45-4.4 43.3-5.1 43.3-6.25L43.3-6.25Q43.3-7.55 42.37-8.63 41.45-9.7 39.6-10.4L39.6-10.4Q35.75-11.85 34.07-13.7 32.4-15.55 32.4-18.5L32.4-18.5Q32.4-19.9 33.05-21.18 33.7-22.45 34.82-23.43 35.95-24.4 37.5-24.95 39.05-25.5 40.85-25.5ZM61.45-25.5L61.45-25.5Q62.89-25.5 64.3-25.2 65.69-24.9 66.8-24.5L66.8-24.5Q68.09-24.05 69.19-23.55L69.19-23.55 67.5-19.65Q66.5-20.1 65.5-20.45L65.5-20.45Q64.64-20.75 63.62-21.03 62.59-21.3 61.59-21.3L61.59-21.3Q60.45-21.3 59.62-20.75 58.8-20.2 58.8-19.1L58.8-19.1Q58.8-16.25 62.95-14.65L62.95-14.65Q64.5-14.05 65.75-13.38 67-12.7 67.87-11.8 68.75-10.9 69.19-9.73 69.64-8.55 69.64-6.95L69.64-6.95Q69.64-5.55 69.07-4.2 68.5-2.85 67.37-1.8 66.25-0.75 64.62-0.13 62.99 0.5 60.95 0.5L60.95 0.5Q59.3 0.5 57.7 0.13 56.09-0.25 54.82-0.7 53.55-1.15 52.8-1.55L52.8-1.55 52.05-1.9 53.89-6.1 54.55-5.75Q55.2-5.35 56.2-4.9 57.2-4.45 58.34-4.08 59.49-3.7 60.45-3.7L60.45-3.7Q62.2-3.7 63.05-4.4 63.89-5.1 63.89-6.25L63.89-6.25Q63.89-7.55 62.97-8.63 62.05-9.7 60.2-10.4L60.2-10.4Q56.34-11.85 54.67-13.7 52.99-15.55 52.99-18.5L52.99-18.5Q52.99-19.9 53.64-21.18 54.3-22.45 55.42-23.43 56.55-24.4 58.09-24.95 59.64-25.5 61.45-25.5ZM79.94 0.2Q77.29 0.2 75.89-1.38 74.49-2.95 74.49-5.45L74.49-5.45 74.49-24.9 80.19-24.9 80.19-5.95Q80.19-4.8 80.54-4.4 80.89-4 81.59-4L81.59-4Q81.79-4 82.02-4 82.24-4 82.44-4.05L82.44-4.05Q82.64-4.05 82.89-4.1L82.89-4.1 83.49-0.5Q83.14-0.3 82.59-0.15L82.59-0.15Q82.14 0 81.47 0.1 80.79 0.2 79.94 0.2L79.94 0.2ZM77.44-36Q79.04-36 79.89-35.05 80.74-34.1 80.74-32.6L80.74-32.6Q80.74-31.1 79.87-30.1 78.99-29.1 77.29-29.1L77.29-29.1Q75.69-29.1 74.82-30.08 73.94-31.05 73.94-32.45L73.94-32.45Q73.94-34 74.82-35 75.69-36 77.44-36L77.44-36ZM94.84-25.5L94.84-25.5Q96.29-25.5 97.69-25.2 99.09-24.9 100.19-24.5L100.19-24.5Q101.49-24.05 102.59-23.55L102.59-23.55 100.89-19.65Q99.89-20.1 98.89-20.45L98.89-20.45Q98.04-20.75 97.02-21.03 95.99-21.3 94.99-21.3L94.99-21.3Q93.84-21.3 93.02-20.75 92.19-20.2 92.19-19.1L92.19-19.1Q92.19-16.25 96.34-14.65L96.34-14.65Q97.89-14.05 99.14-13.38 100.39-12.7 101.27-11.8 102.14-10.9 102.59-9.73 103.04-8.55 103.04-6.95L103.04-6.95Q103.04-5.55 102.47-4.2 101.89-2.85 100.77-1.8 99.64-0.75 98.02-0.13 96.39 0.5 94.34 0.5L94.34 0.5Q92.69 0.5 91.09 0.13 89.49-0.25 88.21-0.7 86.94-1.15 86.19-1.55L86.19-1.55 85.44-1.9 87.29-6.1 87.94-5.75Q88.59-5.35 89.59-4.9 90.59-4.45 91.74-4.08 92.89-3.7 93.84-3.7L93.84-3.7Q95.59-3.7 96.44-4.4 97.29-5.1 97.29-6.25L97.29-6.25Q97.29-7.55 96.36-8.63 95.44-9.7 93.59-10.4L93.59-10.4Q89.74-11.85 88.06-13.7 86.39-15.55 86.39-18.5L86.39-18.5Q86.39-19.9 87.04-21.18 87.69-22.45 88.81-23.43 89.94-24.4 91.49-24.95 93.04-25.5 94.84-25.5ZM105.34-20.85L105.34-24.9 109.84-24.9 110.84-30.75 115.54-31.8 115.54-24.9 121.69-24.9 120.99-20.85 115.54-20.85 115.54-6.05Q115.54-4.75 116.24-4.38 116.94-4 117.79-4L117.79-4Q118.49-4 119.19-4.1 119.89-4.2 120.44-4.35L120.44-4.35Q121.09-4.5 121.69-4.7L121.69-4.7 122.64-0.95 122.19-0.8Q121.74-0.6 120.86-0.38 119.99-0.15 118.81 0.03 117.64 0.2 116.24 0.2L116.24 0.2Q114.84 0.2 113.66-0.1 112.49-0.4 111.64-1.07 110.79-1.75 110.31-2.8 109.84-3.85 109.84-5.4L109.84-5.4 109.84-20.85 105.34-20.85ZM145.49-23.85L145.49-12.05Q145.49-9.05 145.86-7.03 146.24-5 146.69-3.75L146.69-3.75Q147.24-2.25 147.88-1.4L147.88-1.4 143.44 0.4Q142.78-0.25 142.24-1.15L142.24-1.15Q141.78-1.95 141.38-3.08 140.99-4.2 140.88-5.75L140.88-5.75Q140.03-2.75 138.16-1.23 136.28 0.3 133.09 0.3L133.09 0.3Q130.74 0.3 129.01-0.58 127.29-1.45 126.14-3.08 124.98-4.7 124.44-7 123.89-9.3 123.89-12.1L123.89-12.1Q123.89-14.95 124.76-17.38 125.64-19.8 127.21-21.55 128.78-23.3 130.99-24.3 133.19-25.3 135.84-25.3L135.84-25.3Q137.34-25.3 138.96-25.08 140.59-24.85 141.99-24.6 143.38-24.35 144.36-24.13 145.34-23.9 145.49-23.85L145.49-23.85ZM134.03-3.7Q135.28-3.7 136.34-4.55 137.38-5.4 138.16-6.78 138.94-8.15 139.36-9.93 139.78-11.7 139.78-13.55L139.78-13.55 139.78-20.75Q139.28-20.9 138.28-21.1 137.28-21.3 136.49-21.3L136.49-21.3Q134.59-21.3 133.36-20.65 132.13-20 131.38-18.85 130.63-17.7 130.34-16.1 130.03-14.5 130.03-12.6L130.03-12.6Q130.03-10.85 130.13-9.25 130.24-7.65 130.66-6.4 131.09-5.15 131.88-4.42 132.69-3.7 134.03-3.7L134.03-3.7ZM172.33 0L166.68 0 166.68-16.15Q166.68-18.25 165.93-19.53 165.18-20.8 163.38-20.8L163.38-20.8Q162.23-20.8 161.16-20.23 160.08-19.65 159.23-18.55 158.38-17.45 157.86-15.88 157.33-14.3 157.33-12.35L157.33-12.35 157.33 0 151.63 0 151.63-12.6Q151.63-15.6 151.23-17.63 150.83-19.65 150.38-20.9L150.38-20.9Q149.83-22.35 149.18-23.25L149.18-23.25 153.68-25.05Q154.18-24.5 154.68-23.7L154.68-23.7Q155.08-23 155.48-21.98 155.88-20.95 156.13-19.65L156.13-19.65Q157.43-22.65 159.88-23.98 162.33-25.3 165.03-25.3L165.03-25.3Q168.88-25.3 170.61-22.98 172.33-20.65 172.33-16.7L172.33-16.7 172.33 0ZM175.88-20.85L175.88-24.9 180.38-24.9 181.38-30.75 186.08-31.8 186.08-24.9 192.23-24.9 191.53-20.85 186.08-20.85 186.08-6.05Q186.08-4.75 186.78-4.38 187.48-4 188.33-4L188.33-4Q189.03-4 189.73-4.1 190.43-4.2 190.98-4.35L190.98-4.35Q191.63-4.5 192.23-4.7L192.23-4.7 193.18-0.95 192.73-0.8Q192.28-0.6 191.41-0.38 190.53-0.15 189.35 0.03 188.18 0.2 186.78 0.2L186.78 0.2Q185.38 0.2 184.2-0.1 183.03-0.4 182.18-1.07 181.33-1.75 180.85-2.8 180.38-3.85 180.38-5.4L180.38-5.4 180.38-20.85 175.88-20.85ZM225.03-34L222.58-30.75Q222.43-30.9 221.65-31.3 220.88-31.7 220.18-31.7L220.18-31.7Q219.73-31.7 219.08-31.58 218.43-31.45 217.83-31.03 217.23-30.6 216.8-29.8 216.38-29 216.38-27.7L216.38-27.7Q216.38-27.15 216.45-26.45 216.53-25.75 216.78-24.9L216.78-24.9 222.98-24.9 222.28-20.85 217.08-20.85 217.08-1.25Q217.08 1.75 216.3 3.78 215.53 5.8 214.28 7.18 213.03 8.55 211.5 9.47 209.98 10.4 208.48 11.15L208.48 11.15 206.18 7.35Q208.03 6.4 209.08 5.33 210.13 4.25 210.65 3.18 211.18 2.1 211.28 1.1 211.38 0.1 211.38-0.7L211.38-0.7 211.38-20.85 206.88-20.85 206.88-24.9 211.23-24.9Q211.03-25.65 210.95-26.45 210.88-27.25 210.88-27.95L210.88-27.95Q210.88-29.95 211.6-31.5 212.33-33.05 213.55-34.05 214.78-35.05 216.4-35.58 218.03-36.1 219.78-36.1L219.78-36.1Q221.73-36.1 222.98-35.48 224.23-34.85 225.03-34L225.03-34ZM235.42-25.5Q241.17-25.5 243.77-22.1 246.37-18.7 246.37-12.75L246.37-12.75Q246.37-9.95 245.67-7.53 244.97-5.1 243.55-3.33 242.12-1.55 239.97-0.53 237.82 0.5 234.97 0.5L234.97 0.5Q232.12 0.5 230.05-0.38 227.97-1.25 226.62-2.9 225.27-4.55 224.65-6.9 224.02-9.25 224.02-12.2L224.02-12.2Q224.02-15.05 224.72-17.48 225.42-19.9 226.85-21.68 228.27-23.45 230.42-24.48 232.57-25.5 235.42-25.5L235.42-25.5ZM234.92-21.3Q233.47-21.3 232.55-20.65 231.62-20 231.1-18.82 230.57-17.65 230.37-16.07 230.17-14.5 230.17-12.7L230.17-12.7Q230.17-10.85 230.4-9.2 230.62-7.55 231.22-6.33 231.82-5.1 232.85-4.4 233.87-3.7 235.47-3.7L235.47-3.7Q236.92-3.7 237.85-4.35 238.77-5 239.3-6.18 239.82-7.35 240.02-8.9 240.22-10.45 240.22-12.25L240.22-12.25Q240.22-14.1 240-15.75 239.77-17.4 239.17-18.65 238.57-19.9 237.55-20.6 236.52-21.3 234.92-21.3L234.92-21.3ZM262.52-19.7Q261.62-19.7 260.72-19.25 259.82-18.8 259.12-18.03 258.42-17.25 257.97-16.15 257.52-15.05 257.52-13.7L257.52-13.7 257.52 0 251.82 0 251.82-12.6Q251.82-15.6 251.42-17.63 251.02-19.65 250.57-20.9L250.57-20.9Q250.02-22.35 249.37-23.25L249.37-23.25 253.87-25.05Q254.32-24.5 254.82-23.7L254.82-23.7Q255.22-23 255.62-22.05 256.02-21.1 256.27-19.8L256.27-19.8Q257.27-22.7 259.17-23.98 261.07-25.25 263.47-25.25L263.47-25.25Q264.62-25.25 265.62-24.98 266.62-24.7 266.57-24.7L266.57-24.7 264.97-19.15Q265.02-19.15 264.39-19.43 263.77-19.7 262.52-19.7L262.52-19.7ZM299.26-22.1L296.06-19.05Q295.31-19.9 294.54-20.5 293.76-21.1 292.46-21.1L292.46-21.1Q291.71-21.1 290.79-20.88 289.87-20.65 289.06-19.78 288.26-18.9 287.74-17.2 287.21-15.5 287.21-12.6L287.21-12.6Q287.21-9.65 287.74-7.93 288.26-6.2 289.09-5.25 289.92-4.3 290.87-4.03 291.81-3.75 292.71-3.75L292.71-3.75Q293.42-3.75 294.17-3.88 294.92-4 295.62-4.17 296.31-4.35 296.84-4.5 297.37-4.65 297.62-4.75L297.62-4.75 299.01-1.15Q298.87-1.1 298.34-0.85 297.81-0.6 296.92-0.35 296.01-0.1 294.76 0.13 293.51 0.35 291.96 0.35L291.96 0.35Q289.06 0.35 287.01-0.53 284.96-1.4 283.64-3 282.31-4.6 281.69-6.85 281.06-9.1 281.06-11.85L281.06-11.85Q281.06-15.15 281.94-17.7 282.81-20.25 284.37-21.98 285.92-23.7 288.01-24.6 290.12-25.5 292.51-25.5L292.51-25.5Q294.87-25.5 296.49-24.6 298.12-23.7 299.26-22.1L299.26-22.1ZM312.46-25.5Q318.21-25.5 320.81-22.1 323.41-18.7 323.41-12.75L323.41-12.75Q323.41-9.95 322.71-7.53 322.01-5.1 320.59-3.33 319.16-1.55 317.01-0.53 314.86 0.5 312.01 0.5L312.01 0.5Q309.16 0.5 307.09-0.38 305.01-1.25 303.66-2.9 302.31-4.55 301.69-6.9 301.06-9.25 301.06-12.2L301.06-12.2Q301.06-15.05 301.76-17.48 302.46-19.9 303.89-21.68 305.31-23.45 307.46-24.48 309.61-25.5 312.46-25.5L312.46-25.5ZM311.96-21.3Q310.51-21.3 309.59-20.65 308.66-20 308.14-18.82 307.61-17.65 307.41-16.07 307.21-14.5 307.21-12.7L307.21-12.7Q307.21-10.85 307.44-9.2 307.66-7.55 308.26-6.33 308.86-5.1 309.89-4.4 310.91-3.7 312.51-3.7L312.51-3.7Q313.96-3.7 314.89-4.35 315.81-5 316.34-6.18 316.86-7.35 317.06-8.9 317.26-10.45 317.26-12.25L317.26-12.25Q317.26-14.1 317.04-15.75 316.81-17.4 316.21-18.65 315.61-19.9 314.59-20.6 313.56-21.3 311.96-21.3L311.96-21.3ZM362.61 0L356.96 0 356.96-16.3Q356.96-18.4 356.31-19.63 355.66-20.85 354.06-20.85L354.06-20.85Q353.11-20.85 352.14-20.33 351.16-19.8 350.36-18.8 349.56-17.8 349.06-16.4 348.56-15 348.56-13.3L348.56-13.3 348.56 0 342.91 0 342.91-16.3Q342.91-18.4 342.26-19.63 341.61-20.85 340.01-20.85L340.01-20.85Q339.01-20.85 338.04-20.28 337.06-19.7 336.29-18.6 335.51-17.5 335.04-15.93 334.56-14.35 334.56-12.4L334.56-12.4 334.56 0 328.86 0 328.86-12.6Q328.86-15.6 328.46-17.63 328.06-19.65 327.61-20.9L327.61-20.9Q327.06-22.35 326.41-23.25L326.41-23.25 330.91-25.05Q331.41-24.5 331.91-23.7L331.91-23.7Q332.31-23 332.71-21.98 333.11-20.95 333.36-19.65L333.36-19.65Q334.61-22.65 336.89-23.98 339.16-25.3 341.71-25.3L341.71-25.3Q344.26-25.3 345.69-24 347.11-22.7 347.81-20.65L347.81-20.65Q349.16-23.15 351.29-24.23 353.41-25.3 355.76-25.3L355.76-25.3Q357.71-25.3 359.04-24.68 360.36-24.05 361.14-22.93 361.91-21.8 362.26-20.23 362.61-18.65 362.61-16.7L362.61-16.7 362.61 0ZM375.01 10.05L369.31 11.05 369.31-12.6Q369.31-15.6 368.91-17.63 368.51-19.65 368.06-20.9L368.06-20.9Q367.51-22.35 366.86-23.25L366.86-23.25 371.36-25.05Q371.96-24.45 372.46-23.55L372.46-23.55Q372.86-22.8 373.26-21.73 373.66-20.65 373.86-19.2L373.86-19.2Q374.71-22.2 376.56-23.75 378.41-25.3 381.71-25.3L381.71-25.3Q384.06-25.3 385.78-24.43 387.51-23.55 388.63-21.93 389.76-20.3 390.31-18 390.86-15.7 390.86-12.9L390.86-12.9Q390.86-10.05 390.01-7.63 389.16-5.2 387.58-3.45 386.01-1.7 383.81-0.7 381.61 0.3 378.91 0.3L378.91 0.3Q377.96 0.3 376.98 0.2 376.01 0.1 375.01 0L375.01 0 375.01 10.05ZM380.76-21.3Q379.51-21.3 378.46-20.45 377.41-19.6 376.63-18.2 375.86-16.8 375.43-15.05 375.01-13.3 375.01-11.45L375.01-11.45 375.01-4.25Q375.51-4.1 376.51-3.9 377.51-3.7 378.26-3.7L378.26-3.7Q380.16-3.7 381.41-4.35 382.66-5 383.41-6.15 384.16-7.3 384.46-8.9 384.76-10.5 384.76-12.4L384.76-12.4Q384.76-14.15 384.66-15.75 384.56-17.35 384.13-18.6 383.71-19.85 382.91-20.58 382.11-21.3 380.76-21.3L380.76-21.3ZM394.41-11.85Q394.41-15.2 395.33-17.75 396.26-20.3 397.88-22.03 399.51-23.75 401.71-24.63 403.91-25.5 406.46-25.5L406.46-25.5Q408.71-25.5 410.28-24.95 411.86-24.4 412.86-23.45 413.86-22.5 414.33-21.2 414.81-19.9 414.81-18.4L414.81-18.4Q414.81-16.6 413.81-14.98 412.81-13.35 410.93-12.13 409.06-10.9 406.41-10.18 403.76-9.45 400.46-9.4L400.46-9.4Q400.61-8.25 400.93-7.23 401.26-6.2 401.88-5.43 402.51-4.65 403.51-4.2 404.51-3.75 406.01-3.75L406.01-3.75Q407.11-3.75 408.36-4 409.61-4.25 410.66-4.6L410.66-4.6Q411.91-5 413.11-5.5L413.11-5.5 414.61-1.95Q413.31-1.3 411.81-0.8L411.81-0.8Q410.51-0.35 408.81 0 407.11 0.35 405.21 0.35L405.21 0.35Q402.31 0.35 400.26-0.53 398.21-1.4 396.91-3 395.61-4.6 395.01-6.85 394.41-9.1 394.41-11.85L394.41-11.85ZM406.01-21.6Q404.36-21.6 403.28-20.83 402.21-20.05 401.56-18.82 400.91-17.6 400.63-16.07 400.36-14.55 400.31-13L400.31-13Q402.71-13.1 404.38-13.63 406.06-14.15 407.11-14.93 408.16-15.7 408.63-16.6 409.11-17.5 409.11-18.4L409.11-18.4Q409.11-19.85 408.26-20.73 407.41-21.6 406.01-21.6L406.01-21.6ZM416.3-20.85L416.3-24.9 420.8-24.9 421.8-30.75 426.5-31.8 426.5-24.9 432.65-24.9 431.95-20.85 426.5-20.85 426.5-6.05Q426.5-4.75 427.2-4.38 427.9-4 428.75-4L428.75-4Q429.45-4 430.15-4.1 430.85-4.2 431.4-4.35L431.4-4.35Q432.05-4.5 432.65-4.7L432.65-4.7 433.6-0.95 433.15-0.8Q432.7-0.6 431.83-0.38 430.95-0.15 429.78 0.03 428.6 0.2 427.2 0.2L427.2 0.2Q425.8 0.2 424.63-0.1 423.45-0.4 422.6-1.07 421.75-1.75 421.28-2.8 420.8-3.85 420.8-5.4L420.8-5.4 420.8-20.85 416.3-20.85ZM442.35 0.2Q439.7 0.2 438.3-1.38 436.9-2.95 436.9-5.45L436.9-5.45 436.9-24.9 442.6-24.9 442.6-5.95Q442.6-4.8 442.95-4.4 443.3-4 444-4L444-4Q444.2-4 444.43-4 444.65-4 444.85-4.05L444.85-4.05Q445.05-4.05 445.3-4.1L445.3-4.1 445.9-0.5Q445.55-0.3 445-0.15L445-0.15Q444.55 0 443.88 0.1 443.2 0.2 442.35 0.2L442.35 0.2ZM439.85-36Q441.45-36 442.3-35.05 443.15-34.1 443.15-32.6L443.15-32.6Q443.15-31.1 442.28-30.1 441.4-29.1 439.7-29.1L439.7-29.1Q438.1-29.1 437.23-30.08 436.35-31.05 436.35-32.45L436.35-32.45Q436.35-34 437.23-35 438.1-36 439.85-36L439.85-36ZM446.95-20.85L446.95-24.9 451.45-24.9 452.45-30.75 457.15-31.8 457.15-24.9 463.3-24.9 462.6-20.85 457.15-20.85 457.15-6.05Q457.15-4.75 457.85-4.38 458.55-4 459.4-4L459.4-4Q460.1-4 460.8-4.1 461.5-4.2 462.05-4.35L462.05-4.35Q462.7-4.5 463.3-4.7L463.3-4.7 464.25-0.95 463.8-0.8Q463.35-0.6 462.47-0.38 461.6-0.15 460.42 0.03 459.25 0.2 457.85 0.2L457.85 0.2Q456.45 0.2 455.27-0.1 454.1-0.4 453.25-1.07 452.4-1.75 451.92-2.8 451.45-3.85 451.45-5.4L451.45-5.4 451.45-20.85 446.95-20.85ZM473 0.2Q470.35 0.2 468.95-1.38 467.55-2.95 467.55-5.45L467.55-5.45 467.55-24.9 473.25-24.9 473.25-5.95Q473.25-4.8 473.6-4.4 473.95-4 474.65-4L474.65-4Q474.85-4 475.07-4 475.3-4 475.5-4.05L475.5-4.05Q475.7-4.05 475.95-4.1L475.95-4.1 476.55-0.5Q476.2-0.3 475.65-0.15L475.65-0.15Q475.2 0 474.52 0.1 473.85 0.2 473 0.2L473 0.2ZM470.5-36Q472.1-36 472.95-35.05 473.8-34.1 473.8-32.6L473.8-32.6Q473.8-31.1 472.92-30.1 472.05-29.1 470.35-29.1L470.35-29.1Q468.75-29.1 467.87-30.08 467-31.05 467-32.45L467-32.45Q467-34 467.87-35 468.75-36 470.5-36L470.5-36ZM494.94-24.9L500.74-24.9 500.84-24.5Q500.89-24.05 500.99-23.33 501.09-22.6 501.17-21.68 501.24-20.75 501.24-19.8L501.24-19.8Q501.24-14.25 500.42-10.43 499.59-6.6 497.92-4.23 496.24-1.85 493.67-0.8 491.09 0.25 487.59 0.25L487.59 0.25Q483.64 0.25 481.97-2.02 480.29-4.3 480.29-8.3L480.29-8.3 480.29-24.9 485.99-24.9 485.99-8.45Q485.99-6.35 486.74-5.05 487.49-3.75 489.29-3.75L489.29-3.75Q491.09-3.75 492.29-5.1 493.49-6.45 494.19-8.63 494.89-10.8 495.19-13.58 495.49-16.35 495.49-19.2L495.49-19.2Q495.49-20.25 495.42-21.28 495.34-22.3 495.22-23.1 495.09-23.9 495.04-24.4L495.04-24.4 494.94-24.9ZM505.24-11.85Q505.24-15.2 506.17-17.75 507.09-20.3 508.72-22.03 510.34-23.75 512.54-24.63 514.74-25.5 517.29-25.5L517.29-25.5Q519.54-25.5 521.12-24.95 522.69-24.4 523.69-23.45 524.69-22.5 525.17-21.2 525.64-19.9 525.64-18.4L525.64-18.4Q525.64-16.6 524.64-14.98 523.64-13.35 521.77-12.13 519.89-10.9 517.24-10.18 514.59-9.45 511.29-9.4L511.29-9.4Q511.44-8.25 511.77-7.23 512.09-6.2 512.72-5.43 513.34-4.65 514.34-4.2 515.34-3.75 516.84-3.75L516.84-3.75Q517.94-3.75 519.19-4 520.44-4.25 521.49-4.6L521.49-4.6Q522.74-5 523.94-5.5L523.94-5.5 525.44-1.95Q524.14-1.3 522.64-0.8L522.64-0.8Q521.34-0.35 519.64 0 517.94 0.35 516.04 0.35L516.04 0.35Q513.14 0.35 511.09-0.53 509.04-1.4 507.74-3 506.44-4.6 505.84-6.85 505.24-9.1 505.24-11.85L505.24-11.85ZM516.84-21.6Q515.19-21.6 514.12-20.83 513.04-20.05 512.39-18.82 511.74-17.6 511.47-16.07 511.19-14.55 511.14-13L511.14-13Q513.54-13.1 515.22-13.63 516.89-14.15 517.94-14.93 518.99-15.7 519.47-16.6 519.94-17.5 519.94-18.4L519.94-18.4Q519.94-19.85 519.09-20.73 518.24-21.6 516.84-21.6L516.84-21.6ZM554.38-11.85Q554.38-15.2 555.31-17.75 556.23-20.3 557.86-22.03 559.48-23.75 561.68-24.63 563.88-25.5 566.43-25.5L566.43-25.5Q568.68-25.5 570.26-24.95 571.83-24.4 572.83-23.45 573.83-22.5 574.31-21.2 574.78-19.9 574.78-18.4L574.78-18.4Q574.78-16.6 573.78-14.98 572.78-13.35 570.91-12.13 569.03-10.9 566.38-10.18 563.73-9.45 560.43-9.4L560.43-9.4Q560.58-8.25 560.91-7.23 561.23-6.2 561.86-5.43 562.48-4.65 563.48-4.2 564.48-3.75 565.98-3.75L565.98-3.75Q567.08-3.75 568.33-4 569.58-4.25 570.63-4.6L570.63-4.6Q571.88-5 573.08-5.5L573.08-5.5 574.58-1.95Q573.28-1.3 571.78-0.8L571.78-0.8Q570.48-0.35 568.78 0 567.08 0.35 565.18 0.35L565.18 0.35Q562.28 0.35 560.23-0.53 558.18-1.4 556.88-3 555.58-4.6 554.98-6.85 554.38-9.1 554.38-11.85L554.38-11.85ZM565.98-21.6Q564.33-21.6 563.26-20.83 562.18-20.05 561.53-18.82 560.88-17.6 560.61-16.07 560.33-14.55 560.28-13L560.28-13Q562.68-13.1 564.36-13.63 566.03-14.15 567.08-14.93 568.13-15.7 568.61-16.6 569.08-17.5 569.08-18.4L569.08-18.4Q569.08-19.85 568.23-20.73 567.38-21.6 565.98-21.6L565.98-21.6ZM582.43 0L576.03 0 584.38-13.2 577.08-24.9 583.68-24.9 586.83-19.75Q587.13-19.25 587.63-18.2 588.13-17.15 588.63-16.1L588.63-16.1Q589.23-17 589.8-17.9 590.38-18.8 590.83-19.65L590.83-19.65Q592.03-21.85 592.55-23.4 593.08-24.95 593.08-24.9L593.08-24.9 598.98-24.9Q598.98-24.95 598.38-23.25 597.78-21.55 596.28-18.75L596.28-18.75Q595.43-17.25 594.33-15.78 593.23-14.3 592.18-13.15L592.18-13.15 600.28 0 593.78 0 590.08-6.45 588.13-10.1 586.18-6.4 582.43 0ZM622.38-23.85L622.38-12.05Q622.38-9.05 622.75-7.03 623.13-5 623.58-3.75L623.58-3.75Q624.13-2.25 624.78-1.4L624.78-1.4 620.33 0.4Q619.68-0.25 619.13-1.15L619.13-1.15Q618.68-1.95 618.28-3.08 617.88-4.2 617.78-5.75L617.78-5.75Q616.93-2.75 615.05-1.23 613.18 0.3 609.98 0.3L609.98 0.3Q607.63 0.3 605.9-0.58 604.18-1.45 603.03-3.08 601.88-4.7 601.33-7 600.78-9.3 600.78-12.1L600.78-12.1Q600.78-14.95 601.65-17.38 602.53-19.8 604.1-21.55 605.68-23.3 607.88-24.3 610.08-25.3 612.73-25.3L612.73-25.3Q614.23-25.3 615.85-25.08 617.48-24.85 618.88-24.6 620.28-24.35 621.25-24.13 622.23-23.9 622.38-23.85L622.38-23.85ZM610.93-3.7Q612.18-3.7 613.23-4.55 614.28-5.4 615.05-6.78 615.83-8.15 616.25-9.93 616.68-11.7 616.68-13.55L616.68-13.55 616.68-20.75Q616.18-20.9 615.18-21.1 614.18-21.3 613.38-21.3L613.38-21.3Q611.48-21.3 610.25-20.65 609.03-20 608.28-18.85 607.53-17.7 607.23-16.1 606.93-14.5 606.93-12.6L606.93-12.6Q606.93-10.85 607.03-9.25 607.13-7.65 607.55-6.4 607.98-5.15 608.78-4.42 609.58-3.7 610.93-3.7L610.93-3.7ZM662.27 0L656.62 0 656.62-16.3Q656.62-18.4 655.97-19.63 655.32-20.85 653.72-20.85L653.72-20.85Q652.77-20.85 651.8-20.33 650.82-19.8 650.02-18.8 649.22-17.8 648.72-16.4 648.22-15 648.22-13.3L648.22-13.3 648.22 0 642.57 0 642.57-16.3Q642.57-18.4 641.92-19.63 641.27-20.85 639.67-20.85L639.67-20.85Q638.67-20.85 637.7-20.28 636.72-19.7 635.95-18.6 635.17-17.5 634.7-15.93 634.22-14.35 634.22-12.4L634.22-12.4 634.22 0 628.52 0 628.52-12.6Q628.52-15.6 628.12-17.63 627.72-19.65 627.27-20.9L627.27-20.9Q626.72-22.35 626.07-23.25L626.07-23.25 630.57-25.05Q631.07-24.5 631.57-23.7L631.57-23.7Q631.97-23 632.37-21.98 632.77-20.95 633.02-19.65L633.02-19.65Q634.27-22.65 636.55-23.98 638.82-25.3 641.37-25.3L641.37-25.3Q643.92-25.3 645.35-24 646.77-22.7 647.47-20.65L647.47-20.65Q648.82-23.15 650.95-24.23 653.07-25.3 655.42-25.3L655.42-25.3Q657.37-25.3 658.7-24.68 660.02-24.05 660.8-22.93 661.57-21.8 661.92-20.23 662.27-18.65 662.27-16.7L662.27-16.7 662.27 0Z" opacity="1" transform="matrix(1,0,0,1,0,0)" fill="#000000" class="slogan-text-1" data-fill-palette-color="secondary" id="text-1"></path></svg></g></svg></g></svg></g></svg></g><g transform="matrix(1,0,0,1,113.08114180792084,0)"><svg viewBox="0 0 169.3577163841583 169.3577163841583" height="169.3577163841583" width="169.3577163841583"><g><svg></svg></g><g id="icon-0"><svg viewBox="0 0 169.3577163841583 169.3577163841583" height="169.3577163841583" width="169.3577163841583"><g><path d="M0 84.679c0-46.767 37.912-84.679 84.679-84.679 46.767 0 84.679 37.912 84.679 84.679 0 46.767-37.912 84.679-84.679 84.679-46.767 0-84.679-37.912-84.679-84.679zM84.679 165.539c44.658 0 80.861-36.203 80.86-80.86 0-44.658-36.203-80.861-80.86-80.861-44.658 0-80.861 36.203-80.861 80.861 0 44.658 36.203 80.861 80.861 80.86z" data-fill-palette-color="accent" fill="#000000" stroke="transparent"></path></g><g transform="matrix(1,0,0,1,35.665783909022494,36.14370846557701)"><svg viewBox="0 0 98.0261485661133 97.07029945300428" height="97.07029945300428" width="98.0261485661133"><g><svg xmlns="http://www.w3.org/2000/svg" xmlns:xlink="http://www.w3.org/1999/xlink" version="1.1" x="0" y="0" viewBox="4.932000160217285 4 91.06800079345703 90.18000030517578" enable-background="new 0 0 100 100" xml:space="preserve" height="97.07029945300428" width="98.0261485661133" class="icon-s-0" data-fill-palette-color="accent" id="s-0"><path fill="#000000" d="M91.329 87.359V35.071h4.491V28.25h-7.259L50.016 4l-37.53 24.25H4.932v6.821h4.491v52.289H5.47v6.82h3.953 81.907H96v-6.82H91.329zM50.018 10.062L80.013 28.25H20.917L50.018 10.062zM84.86 91.147H16.605v-3.215h8.443v-2.762h8.623v-3.116h34.485v3.116h8.981v2.762h7.723V91.147zM15.887 85.086V42.27h7.186v42.816H15.887zM36.721 52.879v-3.031h28.021v3.031H36.721zM64.563 55.152v23.872H51.63V55.152H64.563zM49.834 55.152v23.872H36.902V55.152H49.834zM85.219 85.464h-6.465V42.27h6.465V85.464zM87.555 39.618H12.833v-4.547h74.722V39.618z" data-fill-palette-color="accent"></path><g fill="#4b91f1" data-fill-palette-color="accent"><path fill="#000000" d="M49.592 25.344c-1.709-0.101-3-0.804-3.838-1.76l0.822-1.055c0.653 0.737 1.675 1.424 3.016 1.575v-4.088c-1.709-0.47-3.486-1.039-3.486-3.101 0-1.742 1.458-2.966 3.486-3.083v-1.542h1.021v1.559c1.392 0.134 2.48 0.67 3.302 1.524l-0.838 1.022c-0.671-0.72-1.524-1.139-2.464-1.273v3.636c1.727 0.486 3.553 1.139 3.553 3.317 0 1.525-0.972 3.067-3.553 3.268v1.491h-1.021V25.344zM49.592 18.49v-3.418c-1.208 0.083-2.045 0.771-2.045 1.76C47.547 17.77 48.452 18.155 49.592 18.49zM50.613 20.3v3.804c1.592-0.168 2.111-1.123 2.111-1.91C52.725 21.105 51.787 20.652 50.613 20.3z" data-fill-palette-color="accent"></path></g></svg></g></svg></g></svg></g></svg></g><g></g></svg></g><defs></defs></svg><rect width="377.3345242189827" height="247.2" fill="none" stroke="none" visibility="hidden"></rect></g></svg></g></svg>